<?xml version="1.0" encoding="UTF-8" standalone="no"?>
<!DOCTYPE svg PUBLIC "-//W3C//DTD SVG 1.1//EN"
 "http://www.w3.org/Graphics/SVG/1.1/DTD/svg11.dtd">
<!-- Generated by graphviz version 2.43.0 (0)
 -->
<!-- Title: G Pages: 1 -->
<svg width="1746pt" height="476pt"
 viewBox="0.00 0.00 1745.84 476.00" xmlns="http://www.w3.org/2000/svg" xmlns:xlink="http://www.w3.org/1999/xlink">
<g id="graph0" class="graph" transform="scale(1 1) rotate(0) translate(4 472)">
<title>G</title>
<polygon fill="white" stroke="transparent" points="-4,4 -4,-472 1741.84,-472 1741.84,4 -4,4"/>
<!-- 0 -->
<g id="node1" class="node">
<title>0</title>
<ellipse fill="none" stroke="black" cx="27" cy="-450" rx="27" ry="18"/>
<text text-anchor="middle" x="27" y="-446.3" font-family="Times,serif" font-size="14.00">0</text>
</g>
<!-- x557867f87740 -->
<g id="node2" class="node">
<title>x557867f87740</title>
<ellipse fill="none" stroke="black" cx="156" cy="-450" rx="83.69" ry="18"/>
<text text-anchor="middle" x="156" y="-446.3" font-family="Times,serif" font-size="14.00">x557867f87740</text>
</g>
<!-- x557867f877b0 -->
<g id="node3" class="node">
<title>x557867f877b0</title>
<ellipse fill="none" stroke="black" cx="342" cy="-450" rx="83.69" ry="18"/>
<text text-anchor="middle" x="342" y="-446.3" font-family="Times,serif" font-size="14.00">x557867f877b0</text>
</g>
<!-- 0x557867f87740 -->
<g id="node4" class="node">
<title>0x557867f87740</title>
<ellipse fill="none" stroke="black" cx="534" cy="-450" rx="89.88" ry="18"/>
<text text-anchor="middle" x="534" y="-446.3" font-family="Times,serif" font-size="14.00">0x557867f87740</text>
</g>
<!-- 0x557867f877b0 -->
<g id="node5" class="node">
<title>0x557867f877b0</title>
<ellipse fill="none" stroke="black" cx="534" cy="-378" rx="89.88" ry="18"/>
<text text-anchor="middle" x="534" y="-374.3" font-family="Times,serif" font-size="14.00">0x557867f877b0</text>
</g>
<!-- 0x557867f87740&#45;&gt;0x557867f877b0 -->
<g id="edge1" class="edge">
<title>0x557867f87740&#45;&gt;0x557867f877b0</title>
<path fill="none" stroke="black" d="M534,-431.7C534,-423.98 534,-414.71 534,-406.11"/>
<polygon fill="black" stroke="black" points="537.5,-406.1 534,-396.1 530.5,-406.1 537.5,-406.1"/>
</g>
<!-- 0x557867f894d0 -->
<g id="node7" class="node">
<title>0x557867f894d0</title>
<ellipse fill="none" stroke="black" cx="534" cy="-306" rx="89.88" ry="18"/>
<text text-anchor="middle" x="534" y="-302.3" font-family="Times,serif" font-size="14.00">0x557867f894d0</text>
</g>
<!-- 0x557867f877b0&#45;&gt;0x557867f894d0 -->
<g id="edge2" class="edge">
<title>0x557867f877b0&#45;&gt;0x557867f894d0</title>
<path fill="none" stroke="black" d="M534,-359.7C534,-351.98 534,-342.71 534,-334.11"/>
<polygon fill="black" stroke="black" points="537.5,-334.1 534,-324.1 530.5,-334.1 537.5,-334.1"/>
</g>
<!-- x557867f894d0 -->
<g id="node6" class="node">
<title>x557867f894d0</title>
<ellipse fill="none" stroke="black" cx="726" cy="-450" rx="83.69" ry="18"/>
<text text-anchor="middle" x="726" y="-446.3" font-family="Times,serif" font-size="14.00">x557867f894d0</text>
</g>
<!-- 0x557867f89540 -->
<g id="node9" class="node">
<title>0x557867f89540</title>
<ellipse fill="none" stroke="black" cx="436" cy="-234" rx="89.88" ry="18"/>
<text text-anchor="middle" x="436" y="-230.3" font-family="Times,serif" font-size="14.00">0x557867f89540</text>
</g>
<!-- 0x557867f894d0&#45;&gt;0x557867f89540 -->
<g id="edge3" class="edge">
<title>0x557867f894d0&#45;&gt;0x557867f89540</title>
<path fill="none" stroke="black" d="M510.78,-288.41C497.84,-279.17 481.55,-267.54 467.48,-257.49"/>
<polygon fill="black" stroke="black" points="469.23,-254.43 459.06,-251.47 465.16,-260.13 469.23,-254.43"/>
</g>
<!-- 0x557867f895d0 -->
<g id="node11" class="node">
<title>0x557867f895d0</title>
<ellipse fill="none" stroke="black" cx="633" cy="-234" rx="89.88" ry="18"/>
<text text-anchor="middle" x="633" y="-230.3" font-family="Times,serif" font-size="14.00">0x557867f895d0</text>
</g>
<!-- 0x557867f894d0&#45;&gt;0x557867f895d0 -->
<g id="edge4" class="edge">
<title>0x557867f894d0&#45;&gt;0x557867f895d0</title>
<path fill="none" stroke="black" d="M557.21,-288.59C570.27,-279.35 586.78,-267.68 601.05,-257.59"/>
<polygon fill="black" stroke="black" points="603.45,-260.18 609.59,-251.55 599.41,-254.47 603.45,-260.18"/>
</g>
<!-- x557867f89540 -->
<g id="node8" class="node">
<title>x557867f89540</title>
<ellipse fill="none" stroke="red" cx="912" cy="-450" rx="83.69" ry="18"/>
<text text-anchor="middle" x="912" y="-446.3" font-family="Times,serif" font-size="14.00" fill="red">x557867f89540</text>
</g>
<!-- x557867f895d0 -->
<g id="node10" class="node">
<title>x557867f895d0</title>
<ellipse fill="none" stroke="black" cx="1098" cy="-450" rx="83.69" ry="18"/>
<text text-anchor="middle" x="1098" y="-446.3" font-family="Times,serif" font-size="14.00">x557867f895d0</text>
</g>
<!-- 0x557867f89670 -->
<g id="node13" class="node">
<title>0x557867f89670</title>
<ellipse fill="none" stroke="black" cx="633" cy="-162" rx="89.88" ry="18"/>
<text text-anchor="middle" x="633" y="-158.3" font-family="Times,serif" font-size="14.00">0x557867f89670</text>
</g>
<!-- 0x557867f895d0&#45;&gt;0x557867f89670 -->
<g id="edge5" class="edge">
<title>0x557867f895d0&#45;&gt;0x557867f89670</title>
<path fill="none" stroke="black" d="M633,-215.7C633,-207.98 633,-198.71 633,-190.11"/>
<polygon fill="black" stroke="black" points="636.5,-190.1 633,-180.1 629.5,-190.1 636.5,-190.1"/>
</g>
<!-- x557867f89670 -->
<g id="node12" class="node">
<title>x557867f89670</title>
<ellipse fill="none" stroke="black" cx="1284" cy="-450" rx="83.69" ry="18"/>
<text text-anchor="middle" x="1284" y="-446.3" font-family="Times,serif" font-size="14.00">x557867f89670</text>
</g>
<!-- 0x557867f896e0 -->
<g id="node15" class="node">
<title>0x557867f896e0</title>
<ellipse fill="none" stroke="black" cx="633" cy="-90" rx="89.08" ry="18"/>
<text text-anchor="middle" x="633" y="-86.3" font-family="Times,serif" font-size="14.00">0x557867f896e0</text>
</g>
<!-- 0x557867f89670&#45;&gt;0x557867f896e0 -->
<g id="edge6" class="edge">
<title>0x557867f89670&#45;&gt;0x557867f896e0</title>
<path fill="none" stroke="black" d="M633,-143.7C633,-135.98 633,-126.71 633,-118.11"/>
<polygon fill="black" stroke="black" points="636.5,-118.1 633,-108.1 629.5,-118.1 636.5,-118.1"/>
</g>
<!-- x557867f896e0 -->
<g id="node14" class="node">
<title>x557867f896e0</title>
<ellipse fill="none" stroke="black" cx="1469" cy="-450" rx="83.39" ry="18"/>
<text text-anchor="middle" x="1469" y="-446.3" font-family="Times,serif" font-size="14.00">x557867f896e0</text>
</g>
<!-- 0x557867f89d30 -->
<g id="node17" class="node">
<title>0x557867f89d30</title>
<ellipse fill="none" stroke="black" cx="633" cy="-18" rx="89.88" ry="18"/>
<text text-anchor="middle" x="633" y="-14.3" font-family="Times,serif" font-size="14.00">0x557867f89d30</text>
</g>
<!-- 0x557867f896e0&#45;&gt;0x557867f89d30 -->
<g id="edge7" class="edge">
<title>0x557867f896e0&#45;&gt;0x557867f89d30</title>
<path fill="none" stroke="black" d="M633,-71.7C633,-63.98 633,-54.71 633,-46.11"/>
<polygon fill="black" stroke="black" points="636.5,-46.1 633,-36.1 629.5,-46.1 636.5,-46.1"/>
</g>
<!-- x557867f89d30 -->
<g id="node16" class="node">
<title>x557867f89d30</title>
<ellipse fill="none" stroke="red" cx="1654" cy="-450" rx="83.69" ry="18"/>
<text text-anchor="middle" x="1654" y="-446.3" font-family="Times,serif" font-size="14.00" fill="red">x557867f89d30</text>
</g>
</g>
</svg>
