<?xml version="1.0" encoding="UTF-8" standalone="no"?>
<!DOCTYPE svg PUBLIC "-//W3C//DTD SVG 1.1//EN"
 "http://www.w3.org/Graphics/SVG/1.1/DTD/svg11.dtd">
<!-- Generated by graphviz version 2.43.0 (0)
 -->
<!-- Title: G Pages: 1 -->
<svg width="6147pt" height="1340pt"
 viewBox="0.00 0.00 6147.24 1340.00" xmlns="http://www.w3.org/2000/svg" xmlns:xlink="http://www.w3.org/1999/xlink">
<g id="graph0" class="graph" transform="scale(1 1) rotate(0) translate(4 1336)">
<title>G</title>
<polygon fill="white" stroke="transparent" points="-4,4 -4,-1336 6143.24,-1336 6143.24,4 -4,4"/>
<!-- 0 -->
<g id="node1" class="node">
<title>0</title>
<ellipse fill="none" stroke="black" cx="27" cy="-1314" rx="27" ry="18"/>
<text text-anchor="middle" x="27" y="-1310.3" font-family="Times,serif" font-size="14.00">0</text>
</g>
<!-- x55f8f24aa740 -->
<g id="node2" class="node">
<title>x55f8f24aa740</title>
<ellipse fill="none" stroke="black" cx="153" cy="-1314" rx="80.69" ry="18"/>
<text text-anchor="middle" x="153" y="-1310.3" font-family="Times,serif" font-size="14.00">x55f8f24aa740</text>
</g>
<!-- x55f8f24aa7b0 -->
<g id="node3" class="node">
<title>x55f8f24aa7b0</title>
<ellipse fill="none" stroke="black" cx="332" cy="-1314" rx="80.69" ry="18"/>
<text text-anchor="middle" x="332" y="-1310.3" font-family="Times,serif" font-size="14.00">x55f8f24aa7b0</text>
</g>
<!-- 0x55f8f24aa740 -->
<g id="node4" class="node">
<title>0x55f8f24aa740</title>
<ellipse fill="none" stroke="black" cx="517" cy="-1314" rx="86.38" ry="18"/>
<text text-anchor="middle" x="517" y="-1310.3" font-family="Times,serif" font-size="14.00">0x55f8f24aa740</text>
</g>
<!-- 0x55f8f24aa7b0 -->
<g id="node5" class="node">
<title>0x55f8f24aa7b0</title>
<ellipse fill="none" stroke="black" cx="517" cy="-1242" rx="86.38" ry="18"/>
<text text-anchor="middle" x="517" y="-1238.3" font-family="Times,serif" font-size="14.00">0x55f8f24aa7b0</text>
</g>
<!-- 0x55f8f24aa740&#45;&gt;0x55f8f24aa7b0 -->
<g id="edge1" class="edge">
<title>0x55f8f24aa740&#45;&gt;0x55f8f24aa7b0</title>
<path fill="none" stroke="black" d="M517,-1295.7C517,-1287.98 517,-1278.71 517,-1270.11"/>
<polygon fill="black" stroke="black" points="520.5,-1270.1 517,-1260.1 513.5,-1270.1 520.5,-1270.1"/>
</g>
<!-- 0x55f8f24ac4d0 -->
<g id="node7" class="node">
<title>0x55f8f24ac4d0</title>
<ellipse fill="none" stroke="black" cx="517" cy="-1170" rx="85.59" ry="18"/>
<text text-anchor="middle" x="517" y="-1166.3" font-family="Times,serif" font-size="14.00">0x55f8f24ac4d0</text>
</g>
<!-- 0x55f8f24aa7b0&#45;&gt;0x55f8f24ac4d0 -->
<g id="edge2" class="edge">
<title>0x55f8f24aa7b0&#45;&gt;0x55f8f24ac4d0</title>
<path fill="none" stroke="black" d="M517,-1223.7C517,-1215.98 517,-1206.71 517,-1198.11"/>
<polygon fill="black" stroke="black" points="520.5,-1198.1 517,-1188.1 513.5,-1198.1 520.5,-1198.1"/>
</g>
<!-- x55f8f24ac4d0 -->
<g id="node6" class="node">
<title>x55f8f24ac4d0</title>
<ellipse fill="none" stroke="black" cx="701" cy="-1314" rx="79.89" ry="18"/>
<text text-anchor="middle" x="701" y="-1310.3" font-family="Times,serif" font-size="14.00">x55f8f24ac4d0</text>
</g>
<!-- 0x55f8f24ac540 -->
<g id="node9" class="node">
<title>0x55f8f24ac540</title>
<ellipse fill="none" stroke="black" cx="327" cy="-1098" rx="85.59" ry="18"/>
<text text-anchor="middle" x="327" y="-1094.3" font-family="Times,serif" font-size="14.00">0x55f8f24ac540</text>
</g>
<!-- 0x55f8f24ac4d0&#45;&gt;0x55f8f24ac540 -->
<g id="edge3" class="edge">
<title>0x55f8f24ac4d0&#45;&gt;0x55f8f24ac540</title>
<path fill="none" stroke="black" d="M476.24,-1153.98C447.31,-1143.33 408.3,-1128.95 377.41,-1117.57"/>
<polygon fill="black" stroke="black" points="378.29,-1114.16 367.69,-1113.99 375.87,-1120.73 378.29,-1114.16"/>
</g>
<!-- 0x55f8f24ac5d0 -->
<g id="node11" class="node">
<title>0x55f8f24ac5d0</title>
<ellipse fill="none" stroke="black" cx="517" cy="-1098" rx="85.59" ry="18"/>
<text text-anchor="middle" x="517" y="-1094.3" font-family="Times,serif" font-size="14.00">0x55f8f24ac5d0</text>
</g>
<!-- 0x55f8f24ac4d0&#45;&gt;0x55f8f24ac5d0 -->
<g id="edge4" class="edge">
<title>0x55f8f24ac4d0&#45;&gt;0x55f8f24ac5d0</title>
<path fill="none" stroke="black" d="M517,-1151.7C517,-1143.98 517,-1134.71 517,-1126.11"/>
<polygon fill="black" stroke="black" points="520.5,-1126.1 517,-1116.1 513.5,-1126.1 520.5,-1126.1"/>
</g>
<!-- 0x55f8f24ace70 -->
<g id="node21" class="node">
<title>0x55f8f24ace70</title>
<ellipse fill="none" stroke="black" cx="981" cy="-1098" rx="85.29" ry="18"/>
<text text-anchor="middle" x="981" y="-1094.3" font-family="Times,serif" font-size="14.00">0x55f8f24ace70</text>
</g>
<!-- 0x55f8f24ac4d0&#45;&gt;0x55f8f24ace70 -->
<g id="edge9" class="edge">
<title>0x55f8f24ac4d0&#45;&gt;0x55f8f24ace70</title>
<path fill="none" stroke="black" d="M584.47,-1158.82C669.3,-1146.02 814.59,-1124.11 903.77,-1110.65"/>
<polygon fill="black" stroke="black" points="904.46,-1114.09 913.83,-1109.13 903.42,-1107.17 904.46,-1114.09"/>
</g>
<!-- x55f8f24ac540 -->
<g id="node8" class="node">
<title>x55f8f24ac540</title>
<ellipse fill="none" stroke="red" cx="879" cy="-1314" rx="79.89" ry="18"/>
<text text-anchor="middle" x="879" y="-1310.3" font-family="Times,serif" font-size="14.00" fill="red">x55f8f24ac540</text>
</g>
<!-- x55f8f24ac5d0 -->
<g id="node10" class="node">
<title>x55f8f24ac5d0</title>
<ellipse fill="none" stroke="black" cx="1057" cy="-1314" rx="79.89" ry="18"/>
<text text-anchor="middle" x="1057" y="-1310.3" font-family="Times,serif" font-size="14.00">x55f8f24ac5d0</text>
</g>
<!-- 0x55f8f24ac670 -->
<g id="node13" class="node">
<title>0x55f8f24ac670</title>
<ellipse fill="none" stroke="black" cx="328" cy="-1026" rx="85.59" ry="18"/>
<text text-anchor="middle" x="328" y="-1022.3" font-family="Times,serif" font-size="14.00">0x55f8f24ac670</text>
</g>
<!-- 0x55f8f24ac5d0&#45;&gt;0x55f8f24ac670 -->
<g id="edge5" class="edge">
<title>0x55f8f24ac5d0&#45;&gt;0x55f8f24ac670</title>
<path fill="none" stroke="black" d="M476.45,-1081.98C447.68,-1071.33 408.87,-1056.95 378.15,-1045.57"/>
<polygon fill="black" stroke="black" points="379.07,-1042.18 368.48,-1041.99 376.64,-1048.75 379.07,-1042.18"/>
</g>
<!-- 0x55f8f24ac6e0 -->
<g id="node15" class="node">
<title>0x55f8f24ac6e0</title>
<ellipse fill="none" stroke="black" cx="517" cy="-1026" rx="85.29" ry="18"/>
<text text-anchor="middle" x="517" y="-1022.3" font-family="Times,serif" font-size="14.00">0x55f8f24ac6e0</text>
</g>
<!-- 0x55f8f24ac5d0&#45;&gt;0x55f8f24ac6e0 -->
<g id="edge6" class="edge">
<title>0x55f8f24ac5d0&#45;&gt;0x55f8f24ac6e0</title>
<path fill="none" stroke="black" d="M517,-1079.7C517,-1071.98 517,-1062.71 517,-1054.11"/>
<polygon fill="black" stroke="black" points="520.5,-1054.1 517,-1044.1 513.5,-1054.1 520.5,-1054.1"/>
</g>
<!-- x55f8f24ac670 -->
<g id="node12" class="node">
<title>x55f8f24ac670</title>
<ellipse fill="none" stroke="red" cx="1235" cy="-1314" rx="79.89" ry="18"/>
<text text-anchor="middle" x="1235" y="-1310.3" font-family="Times,serif" font-size="14.00" fill="red">x55f8f24ac670</text>
</g>
<!-- x55f8f24ac6e0 -->
<g id="node14" class="node">
<title>x55f8f24ac6e0</title>
<ellipse fill="none" stroke="black" cx="1412" cy="-1314" rx="79.09" ry="18"/>
<text text-anchor="middle" x="1412" y="-1310.3" font-family="Times,serif" font-size="14.00">x55f8f24ac6e0</text>
</g>
<!-- 0x55f8f24acd30 -->
<g id="node17" class="node">
<title>0x55f8f24acd30</title>
<ellipse fill="none" stroke="black" cx="517" cy="-954" rx="85.59" ry="18"/>
<text text-anchor="middle" x="517" y="-950.3" font-family="Times,serif" font-size="14.00">0x55f8f24acd30</text>
</g>
<!-- 0x55f8f24ac6e0&#45;&gt;0x55f8f24acd30 -->
<g id="edge7" class="edge">
<title>0x55f8f24ac6e0&#45;&gt;0x55f8f24acd30</title>
<path fill="none" stroke="black" d="M517,-1007.7C517,-999.98 517,-990.71 517,-982.11"/>
<polygon fill="black" stroke="black" points="520.5,-982.1 517,-972.1 513.5,-982.1 520.5,-982.1"/>
</g>
<!-- x55f8f24acd30 -->
<g id="node16" class="node">
<title>x55f8f24acd30</title>
<ellipse fill="none" stroke="black" cx="1589" cy="-1314" rx="79.89" ry="18"/>
<text text-anchor="middle" x="1589" y="-1310.3" font-family="Times,serif" font-size="14.00">x55f8f24acd30</text>
</g>
<!-- 0x55f8f24acda0 -->
<g id="node19" class="node">
<title>0x55f8f24acda0</title>
<ellipse fill="none" stroke="black" cx="517" cy="-882" rx="85.29" ry="18"/>
<text text-anchor="middle" x="517" y="-878.3" font-family="Times,serif" font-size="14.00">0x55f8f24acda0</text>
</g>
<!-- 0x55f8f24acd30&#45;&gt;0x55f8f24acda0 -->
<g id="edge8" class="edge">
<title>0x55f8f24acd30&#45;&gt;0x55f8f24acda0</title>
<path fill="none" stroke="black" d="M517,-935.7C517,-927.98 517,-918.71 517,-910.11"/>
<polygon fill="black" stroke="black" points="520.5,-910.1 517,-900.1 513.5,-910.1 520.5,-910.1"/>
</g>
<!-- x55f8f24acda0 -->
<g id="node18" class="node">
<title>x55f8f24acda0</title>
<ellipse fill="none" stroke="red" cx="1766" cy="-1314" rx="79.09" ry="18"/>
<text text-anchor="middle" x="1766" y="-1310.3" font-family="Times,serif" font-size="14.00" fill="red">x55f8f24acda0</text>
</g>
<!-- x55f8f24ace70 -->
<g id="node20" class="node">
<title>x55f8f24ace70</title>
<ellipse fill="none" stroke="black" cx="1943" cy="-1314" rx="79.09" ry="18"/>
<text text-anchor="middle" x="1943" y="-1310.3" font-family="Times,serif" font-size="14.00">x55f8f24ace70</text>
</g>
<!-- 0x55f8f24acf10 -->
<g id="node23" class="node">
<title>0x55f8f24acf10</title>
<ellipse fill="none" stroke="black" cx="703" cy="-1026" rx="83.39" ry="18"/>
<text text-anchor="middle" x="703" y="-1022.3" font-family="Times,serif" font-size="14.00">0x55f8f24acf10</text>
</g>
<!-- 0x55f8f24ace70&#45;&gt;0x55f8f24acf10 -->
<g id="edge10" class="edge">
<title>0x55f8f24ace70&#45;&gt;0x55f8f24acf10</title>
<path fill="none" stroke="black" d="M928.38,-1083.75C881.85,-1072.03 813.91,-1054.93 764.8,-1042.56"/>
<polygon fill="black" stroke="black" points="765.48,-1039.12 754.93,-1040.08 763.77,-1045.91 765.48,-1039.12"/>
</g>
<!-- 0x55f8f24acf80 -->
<g id="node25" class="node">
<title>0x55f8f24acf80</title>
<ellipse fill="none" stroke="black" cx="887" cy="-1026" rx="83.39" ry="18"/>
<text text-anchor="middle" x="887" y="-1022.3" font-family="Times,serif" font-size="14.00">0x55f8f24acf80</text>
</g>
<!-- 0x55f8f24ace70&#45;&gt;0x55f8f24acf80 -->
<g id="edge11" class="edge">
<title>0x55f8f24ace70&#45;&gt;0x55f8f24acf80</title>
<path fill="none" stroke="black" d="M958.72,-1080.41C946.31,-1071.17 930.69,-1059.54 917.2,-1049.49"/>
<polygon fill="black" stroke="black" points="919.23,-1046.64 909.12,-1043.47 915.05,-1052.25 919.23,-1046.64"/>
</g>
<!-- 0x55f8f24ad010 -->
<g id="node27" class="node">
<title>0x55f8f24ad010</title>
<ellipse fill="none" stroke="black" cx="1075" cy="-1026" rx="87.18" ry="18"/>
<text text-anchor="middle" x="1075" y="-1022.3" font-family="Times,serif" font-size="14.00">0x55f8f24ad010</text>
</g>
<!-- 0x55f8f24ace70&#45;&gt;0x55f8f24ad010 -->
<g id="edge12" class="edge">
<title>0x55f8f24ace70&#45;&gt;0x55f8f24ad010</title>
<path fill="none" stroke="black" d="M1003.28,-1080.41C1015.69,-1071.17 1031.31,-1059.54 1044.8,-1049.49"/>
<polygon fill="black" stroke="black" points="1046.95,-1052.25 1052.88,-1043.47 1042.77,-1046.64 1046.95,-1052.25"/>
</g>
<!-- 0x55f8f24ad220 -->
<g id="node35" class="node">
<title>0x55f8f24ad220</title>
<ellipse fill="none" stroke="black" cx="1267" cy="-1026" rx="87.18" ry="18"/>
<text text-anchor="middle" x="1267" y="-1022.3" font-family="Times,serif" font-size="14.00">0x55f8f24ad220</text>
</g>
<!-- 0x55f8f24ace70&#45;&gt;0x55f8f24ad220 -->
<g id="edge16" class="edge">
<title>0x55f8f24ace70&#45;&gt;0x55f8f24ad220</title>
<path fill="none" stroke="black" d="M1034.46,-1083.92C1082.2,-1072.23 1152.23,-1055.09 1202.96,-1042.67"/>
<polygon fill="black" stroke="black" points="1203.95,-1046.04 1212.83,-1040.26 1202.29,-1039.24 1203.95,-1046.04"/>
</g>
<!-- 0x55f8f24ad290 -->
<g id="node37" class="node">
<title>0x55f8f24ad290</title>
<ellipse fill="none" stroke="black" cx="1459" cy="-1026" rx="87.18" ry="18"/>
<text text-anchor="middle" x="1459" y="-1022.3" font-family="Times,serif" font-size="14.00">0x55f8f24ad290</text>
</g>
<!-- 0x55f8f24ace70&#45;&gt;0x55f8f24ad290 -->
<g id="edge17" class="edge">
<title>0x55f8f24ace70&#45;&gt;0x55f8f24ad290</title>
<path fill="none" stroke="black" d="M1051.87,-1087.97C1128.65,-1078.01 1254.7,-1061.1 1363,-1044 1370.52,-1042.81 1378.37,-1041.52 1386.19,-1040.19"/>
<polygon fill="black" stroke="black" points="1386.79,-1043.64 1396.06,-1038.49 1385.61,-1036.74 1386.79,-1043.64"/>
</g>
<!-- x55f8f24acf10 -->
<g id="node22" class="node">
<title>x55f8f24acf10</title>
<ellipse fill="none" stroke="red" cx="2118" cy="-1314" rx="77.19" ry="18"/>
<text text-anchor="middle" x="2118" y="-1310.3" font-family="Times,serif" font-size="14.00" fill="red">x55f8f24acf10</text>
</g>
<!-- x55f8f24acf80 -->
<g id="node24" class="node">
<title>x55f8f24acf80</title>
<ellipse fill="none" stroke="red" cx="2291" cy="-1314" rx="77.19" ry="18"/>
<text text-anchor="middle" x="2291" y="-1310.3" font-family="Times,serif" font-size="14.00" fill="red">x55f8f24acf80</text>
</g>
<!-- x55f8f24ad010 -->
<g id="node26" class="node">
<title>x55f8f24ad010</title>
<ellipse fill="none" stroke="black" cx="2468" cy="-1314" rx="81.49" ry="18"/>
<text text-anchor="middle" x="2468" y="-1310.3" font-family="Times,serif" font-size="14.00">x55f8f24ad010</text>
</g>
<!-- 0x55f8f24ad080 -->
<g id="node29" class="node">
<title>0x55f8f24ad080</title>
<ellipse fill="none" stroke="black" cx="1075" cy="-954" rx="87.18" ry="18"/>
<text text-anchor="middle" x="1075" y="-950.3" font-family="Times,serif" font-size="14.00">0x55f8f24ad080</text>
</g>
<!-- 0x55f8f24ad010&#45;&gt;0x55f8f24ad080 -->
<g id="edge13" class="edge">
<title>0x55f8f24ad010&#45;&gt;0x55f8f24ad080</title>
<path fill="none" stroke="black" d="M1075,-1007.7C1075,-999.98 1075,-990.71 1075,-982.11"/>
<polygon fill="black" stroke="black" points="1078.5,-982.1 1075,-972.1 1071.5,-982.1 1078.5,-982.1"/>
</g>
<!-- x55f8f24ad080 -->
<g id="node28" class="node">
<title>x55f8f24ad080</title>
<ellipse fill="none" stroke="black" cx="2648" cy="-1314" rx="81.49" ry="18"/>
<text text-anchor="middle" x="2648" y="-1310.3" font-family="Times,serif" font-size="14.00">x55f8f24ad080</text>
</g>
<!-- 0x55f8f24ad0f0 -->
<g id="node31" class="node">
<title>0x55f8f24ad0f0</title>
<ellipse fill="none" stroke="black" cx="980" cy="-882" rx="84.49" ry="18"/>
<text text-anchor="middle" x="980" y="-878.3" font-family="Times,serif" font-size="14.00">0x55f8f24ad0f0</text>
</g>
<!-- 0x55f8f24ad080&#45;&gt;0x55f8f24ad0f0 -->
<g id="edge14" class="edge">
<title>0x55f8f24ad080&#45;&gt;0x55f8f24ad0f0</title>
<path fill="none" stroke="black" d="M1052.49,-936.41C1039.95,-927.17 1024.16,-915.54 1010.52,-905.49"/>
<polygon fill="black" stroke="black" points="1012.48,-902.58 1002.35,-899.47 1008.33,-908.22 1012.48,-902.58"/>
</g>
<!-- 0x55f8f24ad160 -->
<g id="node33" class="node">
<title>0x55f8f24ad160</title>
<ellipse fill="none" stroke="black" cx="1170" cy="-882" rx="87.18" ry="18"/>
<text text-anchor="middle" x="1170" y="-878.3" font-family="Times,serif" font-size="14.00">0x55f8f24ad160</text>
</g>
<!-- 0x55f8f24ad080&#45;&gt;0x55f8f24ad160 -->
<g id="edge15" class="edge">
<title>0x55f8f24ad080&#45;&gt;0x55f8f24ad160</title>
<path fill="none" stroke="black" d="M1097.51,-936.41C1110.05,-927.17 1125.84,-915.54 1139.48,-905.49"/>
<polygon fill="black" stroke="black" points="1141.67,-908.22 1147.65,-899.47 1137.52,-902.58 1141.67,-908.22"/>
</g>
<!-- x55f8f24ad0f0 -->
<g id="node30" class="node">
<title>x55f8f24ad0f0</title>
<ellipse fill="none" stroke="red" cx="2826" cy="-1314" rx="78.79" ry="18"/>
<text text-anchor="middle" x="2826" y="-1310.3" font-family="Times,serif" font-size="14.00" fill="red">x55f8f24ad0f0</text>
</g>
<!-- x55f8f24ad160 -->
<g id="node32" class="node">
<title>x55f8f24ad160</title>
<ellipse fill="none" stroke="red" cx="3004" cy="-1314" rx="81.49" ry="18"/>
<text text-anchor="middle" x="3004" y="-1310.3" font-family="Times,serif" font-size="14.00" fill="red">x55f8f24ad160</text>
</g>
<!-- x55f8f24ad220 -->
<g id="node34" class="node">
<title>x55f8f24ad220</title>
<ellipse fill="none" stroke="red" cx="3184" cy="-1314" rx="81.49" ry="18"/>
<text text-anchor="middle" x="3184" y="-1310.3" font-family="Times,serif" font-size="14.00" fill="red">x55f8f24ad220</text>
</g>
<!-- x55f8f24ad290 -->
<g id="node36" class="node">
<title>x55f8f24ad290</title>
<ellipse fill="none" stroke="black" cx="3364" cy="-1314" rx="81.49" ry="18"/>
<text text-anchor="middle" x="3364" y="-1310.3" font-family="Times,serif" font-size="14.00">x55f8f24ad290</text>
</g>
<!-- 0x55f8f24ad330 -->
<g id="node39" class="node">
<title>0x55f8f24ad330</title>
<ellipse fill="none" stroke="black" cx="1363" cy="-954" rx="87.18" ry="18"/>
<text text-anchor="middle" x="1363" y="-950.3" font-family="Times,serif" font-size="14.00">0x55f8f24ad330</text>
</g>
<!-- 0x55f8f24ad290&#45;&gt;0x55f8f24ad330 -->
<g id="edge18" class="edge">
<title>0x55f8f24ad290&#45;&gt;0x55f8f24ad330</title>
<path fill="none" stroke="black" d="M1436.25,-1008.41C1423.58,-999.17 1407.62,-987.54 1393.84,-977.49"/>
<polygon fill="black" stroke="black" points="1395.73,-974.53 1385.59,-971.47 1391.61,-980.19 1395.73,-974.53"/>
</g>
<!-- 0x55f8f24ad3a0 -->
<g id="node41" class="node">
<title>0x55f8f24ad3a0</title>
<ellipse fill="none" stroke="black" cx="1555" cy="-954" rx="86.38" ry="18"/>
<text text-anchor="middle" x="1555" y="-950.3" font-family="Times,serif" font-size="14.00">0x55f8f24ad3a0</text>
</g>
<!-- 0x55f8f24ad290&#45;&gt;0x55f8f24ad3a0 -->
<g id="edge19" class="edge">
<title>0x55f8f24ad290&#45;&gt;0x55f8f24ad3a0</title>
<path fill="none" stroke="black" d="M1481.75,-1008.41C1494.42,-999.17 1510.38,-987.54 1524.16,-977.49"/>
<polygon fill="black" stroke="black" points="1526.39,-980.19 1532.41,-971.47 1522.27,-974.53 1526.39,-980.19"/>
</g>
<!-- x55f8f24ad330 -->
<g id="node38" class="node">
<title>x55f8f24ad330</title>
<ellipse fill="none" stroke="red" cx="3544" cy="-1314" rx="81.49" ry="18"/>
<text text-anchor="middle" x="3544" y="-1310.3" font-family="Times,serif" font-size="14.00" fill="red">x55f8f24ad330</text>
</g>
<!-- x55f8f24ad3a0 -->
<g id="node40" class="node">
<title>x55f8f24ad3a0</title>
<ellipse fill="none" stroke="black" cx="3724" cy="-1314" rx="80.69" ry="18"/>
<text text-anchor="middle" x="3724" y="-1310.3" font-family="Times,serif" font-size="14.00">x55f8f24ad3a0</text>
</g>
<!-- 0x55f8f24ad410 -->
<g id="node43" class="node">
<title>0x55f8f24ad410</title>
<ellipse fill="none" stroke="black" cx="1555" cy="-882" rx="87.18" ry="18"/>
<text text-anchor="middle" x="1555" y="-878.3" font-family="Times,serif" font-size="14.00">0x55f8f24ad410</text>
</g>
<!-- 0x55f8f24ad3a0&#45;&gt;0x55f8f24ad410 -->
<g id="edge20" class="edge">
<title>0x55f8f24ad3a0&#45;&gt;0x55f8f24ad410</title>
<path fill="none" stroke="black" d="M1555,-935.7C1555,-927.98 1555,-918.71 1555,-910.11"/>
<polygon fill="black" stroke="black" points="1558.5,-910.1 1555,-900.1 1551.5,-910.1 1558.5,-910.1"/>
</g>
<!-- x55f8f24ad410 -->
<g id="node42" class="node">
<title>x55f8f24ad410</title>
<ellipse fill="none" stroke="black" cx="3904" cy="-1314" rx="81.49" ry="18"/>
<text text-anchor="middle" x="3904" y="-1310.3" font-family="Times,serif" font-size="14.00">x55f8f24ad410</text>
</g>
<!-- 0x55f8f24ad4a0 -->
<g id="node45" class="node">
<title>0x55f8f24ad4a0</title>
<ellipse fill="none" stroke="black" cx="1555" cy="-810" rx="86.38" ry="18"/>
<text text-anchor="middle" x="1555" y="-806.3" font-family="Times,serif" font-size="14.00">0x55f8f24ad4a0</text>
</g>
<!-- 0x55f8f24ad410&#45;&gt;0x55f8f24ad4a0 -->
<g id="edge21" class="edge">
<title>0x55f8f24ad410&#45;&gt;0x55f8f24ad4a0</title>
<path fill="none" stroke="black" d="M1555,-863.7C1555,-855.98 1555,-846.71 1555,-838.11"/>
<polygon fill="black" stroke="black" points="1558.5,-838.1 1555,-828.1 1551.5,-838.1 1558.5,-838.1"/>
</g>
<!-- x55f8f24ad4a0 -->
<g id="node44" class="node">
<title>x55f8f24ad4a0</title>
<ellipse fill="none" stroke="black" cx="4084" cy="-1314" rx="80.69" ry="18"/>
<text text-anchor="middle" x="4084" y="-1310.3" font-family="Times,serif" font-size="14.00">x55f8f24ad4a0</text>
</g>
<!-- 0x55f8f24ad540 -->
<g id="node47" class="node">
<title>0x55f8f24ad540</title>
<ellipse fill="none" stroke="black" cx="1555" cy="-738" rx="87.18" ry="18"/>
<text text-anchor="middle" x="1555" y="-734.3" font-family="Times,serif" font-size="14.00">0x55f8f24ad540</text>
</g>
<!-- 0x55f8f24ad4a0&#45;&gt;0x55f8f24ad540 -->
<g id="edge22" class="edge">
<title>0x55f8f24ad4a0&#45;&gt;0x55f8f24ad540</title>
<path fill="none" stroke="black" d="M1555,-791.7C1555,-783.98 1555,-774.71 1555,-766.11"/>
<polygon fill="black" stroke="black" points="1558.5,-766.1 1555,-756.1 1551.5,-766.1 1558.5,-766.1"/>
</g>
<!-- x55f8f24ad540 -->
<g id="node46" class="node">
<title>x55f8f24ad540</title>
<ellipse fill="none" stroke="black" cx="4264" cy="-1314" rx="81.49" ry="18"/>
<text text-anchor="middle" x="4264" y="-1310.3" font-family="Times,serif" font-size="14.00">x55f8f24ad540</text>
</g>
<!-- 0x55f8f24ad5b0 -->
<g id="node49" class="node">
<title>0x55f8f24ad5b0</title>
<ellipse fill="none" stroke="black" cx="1555" cy="-666" rx="87.18" ry="18"/>
<text text-anchor="middle" x="1555" y="-662.3" font-family="Times,serif" font-size="14.00">0x55f8f24ad5b0</text>
</g>
<!-- 0x55f8f24ad540&#45;&gt;0x55f8f24ad5b0 -->
<g id="edge23" class="edge">
<title>0x55f8f24ad540&#45;&gt;0x55f8f24ad5b0</title>
<path fill="none" stroke="black" d="M1555,-719.7C1555,-711.98 1555,-702.71 1555,-694.11"/>
<polygon fill="black" stroke="black" points="1558.5,-694.1 1555,-684.1 1551.5,-694.1 1558.5,-694.1"/>
</g>
<!-- x55f8f24ad5b0 -->
<g id="node48" class="node">
<title>x55f8f24ad5b0</title>
<ellipse fill="none" stroke="black" cx="4444" cy="-1314" rx="81.49" ry="18"/>
<text text-anchor="middle" x="4444" y="-1310.3" font-family="Times,serif" font-size="14.00">x55f8f24ad5b0</text>
</g>
<!-- 0x55f8f24ad650 -->
<g id="node51" class="node">
<title>0x55f8f24ad650</title>
<ellipse fill="none" stroke="black" cx="1555" cy="-594" rx="87.18" ry="18"/>
<text text-anchor="middle" x="1555" y="-590.3" font-family="Times,serif" font-size="14.00">0x55f8f24ad650</text>
</g>
<!-- 0x55f8f24ad5b0&#45;&gt;0x55f8f24ad650 -->
<g id="edge24" class="edge">
<title>0x55f8f24ad5b0&#45;&gt;0x55f8f24ad650</title>
<path fill="none" stroke="black" d="M1555,-647.7C1555,-639.98 1555,-630.71 1555,-622.11"/>
<polygon fill="black" stroke="black" points="1558.5,-622.1 1555,-612.1 1551.5,-622.1 1558.5,-622.1"/>
</g>
<!-- x55f8f24ad650 -->
<g id="node50" class="node">
<title>x55f8f24ad650</title>
<ellipse fill="none" stroke="black" cx="4624" cy="-1314" rx="81.49" ry="18"/>
<text text-anchor="middle" x="4624" y="-1310.3" font-family="Times,serif" font-size="14.00">x55f8f24ad650</text>
</g>
<!-- 0x55f8f24ad6f0 -->
<g id="node53" class="node">
<title>0x55f8f24ad6f0</title>
<ellipse fill="none" stroke="black" cx="1555" cy="-522" rx="84.49" ry="18"/>
<text text-anchor="middle" x="1555" y="-518.3" font-family="Times,serif" font-size="14.00">0x55f8f24ad6f0</text>
</g>
<!-- 0x55f8f24ad650&#45;&gt;0x55f8f24ad6f0 -->
<g id="edge25" class="edge">
<title>0x55f8f24ad650&#45;&gt;0x55f8f24ad6f0</title>
<path fill="none" stroke="black" d="M1555,-575.7C1555,-567.98 1555,-558.71 1555,-550.11"/>
<polygon fill="black" stroke="black" points="1558.5,-550.1 1555,-540.1 1551.5,-550.1 1558.5,-550.1"/>
</g>
<!-- x55f8f24ad6f0 -->
<g id="node52" class="node">
<title>x55f8f24ad6f0</title>
<ellipse fill="none" stroke="black" cx="4802" cy="-1314" rx="78.79" ry="18"/>
<text text-anchor="middle" x="4802" y="-1310.3" font-family="Times,serif" font-size="14.00">x55f8f24ad6f0</text>
</g>
<!-- 0x55f8f24ad790 -->
<g id="node55" class="node">
<title>0x55f8f24ad790</title>
<ellipse fill="none" stroke="black" cx="1555" cy="-450" rx="87.18" ry="18"/>
<text text-anchor="middle" x="1555" y="-446.3" font-family="Times,serif" font-size="14.00">0x55f8f24ad790</text>
</g>
<!-- 0x55f8f24ad6f0&#45;&gt;0x55f8f24ad790 -->
<g id="edge26" class="edge">
<title>0x55f8f24ad6f0&#45;&gt;0x55f8f24ad790</title>
<path fill="none" stroke="black" d="M1555,-503.7C1555,-495.98 1555,-486.71 1555,-478.11"/>
<polygon fill="black" stroke="black" points="1558.5,-478.1 1555,-468.1 1551.5,-478.1 1558.5,-478.1"/>
</g>
<!-- x55f8f24ad790 -->
<g id="node54" class="node">
<title>x55f8f24ad790</title>
<ellipse fill="none" stroke="black" cx="4980" cy="-1314" rx="81.49" ry="18"/>
<text text-anchor="middle" x="4980" y="-1310.3" font-family="Times,serif" font-size="14.00">x55f8f24ad790</text>
</g>
<!-- 0x55f8f24ad830 -->
<g id="node57" class="node">
<title>0x55f8f24ad830</title>
<ellipse fill="none" stroke="black" cx="1555" cy="-378" rx="87.18" ry="18"/>
<text text-anchor="middle" x="1555" y="-374.3" font-family="Times,serif" font-size="14.00">0x55f8f24ad830</text>
</g>
<!-- 0x55f8f24ad790&#45;&gt;0x55f8f24ad830 -->
<g id="edge27" class="edge">
<title>0x55f8f24ad790&#45;&gt;0x55f8f24ad830</title>
<path fill="none" stroke="black" d="M1555,-431.7C1555,-423.98 1555,-414.71 1555,-406.11"/>
<polygon fill="black" stroke="black" points="1558.5,-406.1 1555,-396.1 1551.5,-406.1 1558.5,-406.1"/>
</g>
<!-- x55f8f24ad830 -->
<g id="node56" class="node">
<title>x55f8f24ad830</title>
<ellipse fill="none" stroke="black" cx="5160" cy="-1314" rx="81.49" ry="18"/>
<text text-anchor="middle" x="5160" y="-1310.3" font-family="Times,serif" font-size="14.00">x55f8f24ad830</text>
</g>
<!-- 0x55f8f24ad8d0 -->
<g id="node59" class="node">
<title>0x55f8f24ad8d0</title>
<ellipse fill="none" stroke="black" cx="1555" cy="-306" rx="87.18" ry="18"/>
<text text-anchor="middle" x="1555" y="-302.3" font-family="Times,serif" font-size="14.00">0x55f8f24ad8d0</text>
</g>
<!-- 0x55f8f24ad830&#45;&gt;0x55f8f24ad8d0 -->
<g id="edge28" class="edge">
<title>0x55f8f24ad830&#45;&gt;0x55f8f24ad8d0</title>
<path fill="none" stroke="black" d="M1555,-359.7C1555,-351.98 1555,-342.71 1555,-334.11"/>
<polygon fill="black" stroke="black" points="1558.5,-334.1 1555,-324.1 1551.5,-334.1 1558.5,-334.1"/>
</g>
<!-- x55f8f24ad8d0 -->
<g id="node58" class="node">
<title>x55f8f24ad8d0</title>
<ellipse fill="none" stroke="black" cx="5340" cy="-1314" rx="81.49" ry="18"/>
<text text-anchor="middle" x="5340" y="-1310.3" font-family="Times,serif" font-size="14.00">x55f8f24ad8d0</text>
</g>
<!-- 0x55f8f24ad9a0 -->
<g id="node61" class="node">
<title>0x55f8f24ad9a0</title>
<ellipse fill="none" stroke="black" cx="1555" cy="-234" rx="86.38" ry="18"/>
<text text-anchor="middle" x="1555" y="-230.3" font-family="Times,serif" font-size="14.00">0x55f8f24ad9a0</text>
</g>
<!-- 0x55f8f24ad8d0&#45;&gt;0x55f8f24ad9a0 -->
<g id="edge29" class="edge">
<title>0x55f8f24ad8d0&#45;&gt;0x55f8f24ad9a0</title>
<path fill="none" stroke="black" d="M1555,-287.7C1555,-279.98 1555,-270.71 1555,-262.11"/>
<polygon fill="black" stroke="black" points="1558.5,-262.1 1555,-252.1 1551.5,-262.1 1558.5,-262.1"/>
</g>
<!-- x55f8f24ad9a0 -->
<g id="node60" class="node">
<title>x55f8f24ad9a0</title>
<ellipse fill="none" stroke="black" cx="5520" cy="-1314" rx="80.69" ry="18"/>
<text text-anchor="middle" x="5520" y="-1310.3" font-family="Times,serif" font-size="14.00">x55f8f24ad9a0</text>
</g>
<!-- 0x55f8f24ada40 -->
<g id="node63" class="node">
<title>0x55f8f24ada40</title>
<ellipse fill="none" stroke="black" cx="1555" cy="-162" rx="86.38" ry="18"/>
<text text-anchor="middle" x="1555" y="-158.3" font-family="Times,serif" font-size="14.00">0x55f8f24ada40</text>
</g>
<!-- 0x55f8f24ad9a0&#45;&gt;0x55f8f24ada40 -->
<g id="edge30" class="edge">
<title>0x55f8f24ad9a0&#45;&gt;0x55f8f24ada40</title>
<path fill="none" stroke="black" d="M1555,-215.7C1555,-207.98 1555,-198.71 1555,-190.11"/>
<polygon fill="black" stroke="black" points="1558.5,-190.1 1555,-180.1 1551.5,-190.1 1558.5,-190.1"/>
</g>
<!-- x55f8f24ada40 -->
<g id="node62" class="node">
<title>x55f8f24ada40</title>
<ellipse fill="none" stroke="black" cx="5699" cy="-1314" rx="80.69" ry="18"/>
<text text-anchor="middle" x="5699" y="-1310.3" font-family="Times,serif" font-size="14.00">x55f8f24ada40</text>
</g>
<!-- 0x55f8f24adab0 -->
<g id="node65" class="node">
<title>0x55f8f24adab0</title>
<ellipse fill="none" stroke="black" cx="1555" cy="-90" rx="86.38" ry="18"/>
<text text-anchor="middle" x="1555" y="-86.3" font-family="Times,serif" font-size="14.00">0x55f8f24adab0</text>
</g>
<!-- 0x55f8f24ada40&#45;&gt;0x55f8f24adab0 -->
<g id="edge31" class="edge">
<title>0x55f8f24ada40&#45;&gt;0x55f8f24adab0</title>
<path fill="none" stroke="black" d="M1555,-143.7C1555,-135.98 1555,-126.71 1555,-118.11"/>
<polygon fill="black" stroke="black" points="1558.5,-118.1 1555,-108.1 1551.5,-118.1 1558.5,-118.1"/>
</g>
<!-- x55f8f24adab0 -->
<g id="node64" class="node">
<title>x55f8f24adab0</title>
<ellipse fill="none" stroke="black" cx="5878" cy="-1314" rx="80.69" ry="18"/>
<text text-anchor="middle" x="5878" y="-1310.3" font-family="Times,serif" font-size="14.00">x55f8f24adab0</text>
</g>
<!-- 0x55f8f24adb20 -->
<g id="node67" class="node">
<title>0x55f8f24adb20</title>
<ellipse fill="none" stroke="black" cx="1555" cy="-18" rx="87.18" ry="18"/>
<text text-anchor="middle" x="1555" y="-14.3" font-family="Times,serif" font-size="14.00">0x55f8f24adb20</text>
</g>
<!-- 0x55f8f24adab0&#45;&gt;0x55f8f24adb20 -->
<g id="edge32" class="edge">
<title>0x55f8f24adab0&#45;&gt;0x55f8f24adb20</title>
<path fill="none" stroke="black" d="M1555,-71.7C1555,-63.98 1555,-54.71 1555,-46.11"/>
<polygon fill="black" stroke="black" points="1558.5,-46.1 1555,-36.1 1551.5,-46.1 1558.5,-46.1"/>
</g>
<!-- x55f8f24adb20 -->
<g id="node66" class="node">
<title>x55f8f24adb20</title>
<ellipse fill="none" stroke="red" cx="6058" cy="-1314" rx="81.49" ry="18"/>
<text text-anchor="middle" x="6058" y="-1310.3" font-family="Times,serif" font-size="14.00" fill="red">x55f8f24adb20</text>
</g>
</g>
</svg>
